<?xml version="1.0" encoding="iso-8859-1"?>
<!-- Generator: Adobe Illustrator 17.1.0, SVG Export Plug-In . SVG Version: 6.00 Build 0)  -->
<!DOCTYPE svg PUBLIC "-//W3C//DTD SVG 1.1//EN" "http://www.w3.org/Graphics/SVG/1.1/DTD/svg11.dtd">
<svg xmlns="http://www.w3.org/2000/svg" xmlns:xlink="http://www.w3.org/1999/xlink" version="1.1" id="Capa_1" x="0px" y="0px" viewBox="0 0 247 247" style="enable-background:new 0 0 247 247;" xml:space="preserve" width="512px" height="512px">
<path d="M177.47,0H69.53C56.956,0,46.726,10.229,46.726,22.804v6.363v174.666v20.363C46.726,236.771,56.956,247,69.53,247h107.94  c12.574,0,22.804-10.229,22.804-22.804v-20.363V29.167v-6.363C200.274,10.229,190.044,0,177.47,0z M116.75,11.5h13.5  c4.143,0,7.5,3.357,7.5,7.5s-3.357,7.5-7.5,7.5h-13.5c-4.142,0-7.5-3.357-7.5-7.5S112.608,11.5,116.75,11.5z M123.5,233  c-6.259,0-11.333-5.074-11.333-11.333c0-6.259,5.074-11.333,11.333-11.333c6.259,0,11.333,5.074,11.333,11.333  C134.833,227.926,129.759,233,123.5,233z M185.274,196.333H61.726V36.667h123.548V196.333z M170.105,133.034l-34.999-60.62  c-2.422-4.196-6.761-6.701-11.605-6.701c-4.846,0-9.185,2.506-11.605,6.701l-34.999,60.619c-2.423,4.195-2.423,9.205-0.001,13.401  s6.761,6.701,11.606,6.701H158.5c4.845,0,9.184-2.505,11.605-6.701C172.528,142.238,172.527,137.229,170.105,133.034z M116,90.416  c0-4.143,3.357-7.5,7.5-7.5s7.5,3.357,7.5,7.5v19.568c0,4.143-3.357,7.5-7.5,7.5s-7.5-3.357-7.5-7.5V90.416z M123.5,141.343  c-4.678,0-8.483-3.806-8.483-8.482c0-4.678,3.806-8.483,8.483-8.483c4.677,0,8.482,3.806,8.482,8.483  C131.983,137.537,128.177,141.343,123.5,141.343z" fill="#FFDA44"/>
<g>
</g>
<g>
</g>
<g>
</g>
<g>
</g>
<g>
</g>
<g>
</g>
<g>
</g>
<g>
</g>
<g>
</g>
<g>
</g>
<g>
</g>
<g>
</g>
<g>
</g>
<g>
</g>
<g>
</g>
</svg>
